HIERARCHY
ROOT Hips
{
    OFFSET 0.000000 0.000000 0.000000
    CHANNELS 6 Xposition Yposition Zposition Zrotation Xrotation Yrotation
    JOINT Spine
    {
        OFFSET -0.000000 7.236184 0.000000
        CHANNELS 3 Zrotation Xrotation Yrotation
        JOINT Spine1
        {
            OFFSET -0.000000 20.420147 0.000000
            CHANNELS 3 Zrotation Xrotation Yrotation
            JOINT Neck
            {
                OFFSET -0.000000 20.336288 1.848754
                CHANNELS 3 Zrotation Xrotation Yrotation
                JOINT Head
                {
                    OFFSET -0.000000 12.354461 -1.764923
                    CHANNELS 3 Zrotation Xrotation Yrotation
                    End Site
                    {
                        OFFSET -0.000000 22.061537 0.000000
                    }
                }
            }
            JOINT LeftShoulder
            {
                OFFSET 3.573296 18.396038 -0.314103
                CHANNELS 3 Zrotation Xrotation Yrotation
                JOINT LeftArm
                {
                    OFFSET 10.880760 0.000000 0.000000
                    CHANNELS 3 Zrotation Xrotation Yrotation
                    JOINT LeftForeArm
                    {
                        OFFSET 27.185530 0.000000 0.000000
                        CHANNELS 3 Zrotation Xrotation Yrotation
                        JOINT LeftHand
                        {
                            OFFSET 27.825975 0.000000 0.000000
                            CHANNELS 3 Zrotation Xrotation Yrotation
                            End Site
                            {
                                OFFSET 13.236923 0.000000 0.000000
                            }
                        }
                    }
                }
            }
            JOINT RightShoulder
            {
                OFFSET -3.474926 18.396038 -0.314103
                CHANNELS 3 Zrotation Xrotation Yrotation
                JOINT RightArm
                {
                    OFFSET -10.880760 0.000000 0.000000
                    CHANNELS 3 Zrotation Xrotation Yrotation
                    JOINT RightForeArm
                    {
                        OFFSET -27.185530 0.000000 0.000000
                        CHANNELS 3 Zrotation Xrotation Yrotation
                        JOINT RightHand
                        {
                            OFFSET -27.825975 0.000000 0.000000
                            CHANNELS 3 Zrotation Xrotation Yrotation
                            End Site
                            {
                                OFFSET -13.236923 0.000000 0.000000
                            }
                        }
                    }
                }
            }
        }
    }
    JOINT LeftUpLeg
    {
        OFFSET 8.824615 0.000000 0.000000
        CHANNELS 3 Zrotation Xrotation Yrotation
        JOINT LeftLeg
        {
            OFFSET -0.000000 -35.111282 0.000000
            CHANNELS 3 Zrotation Xrotation Yrotation
            JOINT LeftFoot
            {
                OFFSET -0.000000 -42.324711 0.000000
                CHANNELS 3 Zrotation Xrotation Yrotation
                JOINT LeftToeBase
                {
                    OFFSET -0.000000 -5.735999 13.236923
                    CHANNELS 3 Zrotation Xrotation Yrotation
                    End Site
                    {
                        OFFSET -0.000000 0.000000 3.529846
                    }
                }
            }
        }
    }
    JOINT RightUpLeg
    {
        OFFSET -8.824615 0.000000 0.000000
        CHANNELS 3 Zrotation Xrotation Yrotation
        JOINT RightLeg
        {
            OFFSET -0.000000 -35.111282 0.000000
            CHANNELS 3 Zrotation Xrotation Yrotation
            JOINT RightFoot
            {
                OFFSET -0.000000 -42.324711 0.000000
                CHANNELS 3 Zrotation Xrotation Yrotation
                JOINT RightToeBase
                {
                    OFFSET -0.000000 -5.735999 13.236923
                    CHANNELS 3 Zrotation Xrotation Yrotation
                    End Site
                    {
                        OFFSET -0.000000 0.000000 3.529846
                    }
                }
            }
        }
    }
}
MOTION
Frames:    4
Frame Time:    0.008333
-5.674544    83.087250    100.582443    0.291519    -4.592186    -176.736069    -1.819992    -10.664274    0.728949    3.756731    7.363226    0.657046    1.734760    8.491977    -0.874128    2.278488    -13.364045    -0.451652    -2.022142    19.494474    -1.228092    -48.290447    44.369312    -33.278984    18.599594    -10.860519    -56.030853    16.136383    -0.795333    0.857624    8.384755    19.479164    -5.532723    38.291630    45.061714    33.621258    -20.412769    -14.374083    63.783768    -27.701342    -2.150486    2.091345    3.636126    -10.325908    -2.717252    1.137443    19.018913    3.311103    -6.186992    -10.411056    -10.641762    -0.613724    -0.979946    0.681502    -3.708787    -5.754086    0.734166    1.149125    12.447834    6.065904    -0.539612    -7.666769    -13.228498    -1.799554    -0.680106    1.948157    
-5.668089    83.094475    100.586067    0.291117    -4.629353    -176.722733    -1.802185    -10.665514    0.725900    3.724703    7.339927    0.655203    1.744943    8.460134    -0.892230    2.313287    -13.401152    -0.462103    -2.013745    19.489920    -1.225158    -48.268024    44.325600    -33.265369    18.546194    -10.874681    -56.076790    16.145563    -0.833669    0.827635    8.390362    19.470688    -5.512841    38.252480    45.044094    33.660976    -20.508013    -14.327802    63.800621    -27.457323    -2.047856    2.157127    3.643259    -10.334484    -2.713876    1.130402    18.955360    3.316226    -6.191419    -10.375508    -10.652570    -0.609654    -0.974518    0.676976    -3.710164    -5.762290    0.726654    1.153117    12.394517    6.057689    -0.541542    -7.645437    -13.230794    -1.803315    -0.673587    1.952211    
-5.661637    83.101616    100.589706    0.290862    -4.665855    -176.709137    -1.784136    -10.666827    0.722846    3.692341    7.317241    0.653230    1.755439    8.428520    -0.909712    2.346908    -13.437399    -0.472269    -2.004991    19.484852    -1.222638    -48.245914    44.282478    -33.252735    18.494225    -10.888386    -56.122478    16.155355    -0.870753    0.798018    8.396284    19.461899    -5.492702    38.210907    45.027241    33.702206    -20.603464    -14.282713    63.817230    -27.218689    -1.945818    2.221720    3.650552    -10.342978    -2.710674    1.123333    18.892849    3.320495    -6.195632    -10.340715    -10.662913    -0.605746    -0.968860    0.672629    -3.711219    -5.770332    0.718744    1.156797    12.342310    6.050653    -0.542502    -7.624771    -13.233786    -1.806938    -0.667353    1.956117    
-5.655194    83.108620    100.593391    0.290845    -4.701309    -176.695068    -1.765633    -10.668482    0.719640    3.659165    7.295584    0.651196    1.766707    8.397974    -0.926118    2.378263    -13.472372    -0.481897    -1.995566    19.478926    -1.220993    -48.223919    44.240860    -33.242050    18.445171    -10.901913    -56.167553    16.166124    -0.906064    0.769567    8.402579    19.452356    -5.471704    38.165871    45.011459    33.745342    -20.698471    -14.239380    63.833942    -26.989603    -1.845301    2.284468    3.658108    -10.351548    -2.707790    1.116188    18.832222    3.323272    -6.199460    -10.307180    -10.672426    -0.602022    -0.962737    0.668486    -3.711733    -5.778386    0.710064    1.159890    12.292238    6.045737    -0.544755    -7.604942    -13.238480    -1.810360    -0.661076    1.959803    
